<mxfile host="app.diagrams.net" agent="Mozilla/5.0 (Windows NT 10.0; Win64; x64) AppleWebKit/537.36 (KHTML, like Gecko) Chrome/138.0.0.0 Safari/537.36" version="28.0.4" pages="2">
  <diagram name="Cenario 2" id="uk4uiT_LzMpk_ARk5PiJ">
    <mxGraphModel dx="1426" dy="777" grid="1" gridSize="10" guides="1" tooltips="1" connect="1" arrows="1" fold="1" page="1" pageScale="1" pageWidth="1169" pageHeight="827" math="0" shadow="0">
      <root>
        <mxCell id="CbLyd1rWi4z5yvEcUxCL-0" />
        <mxCell id="CbLyd1rWi4z5yvEcUxCL-1" parent="CbLyd1rWi4z5yvEcUxCL-0" />
        <mxCell id="R6aP7fGyWdEv9-0RN7Mx-10" value="dim_produtos" style="swimlane;fontStyle=0;childLayout=stackLayout;horizontal=1;startSize=30;horizontalStack=0;resizeParent=1;resizeParentMax=0;resizeLast=0;collapsible=1;marginBottom=0;whiteSpace=wrap;html=1;" vertex="1" parent="CbLyd1rWi4z5yvEcUxCL-1">
          <mxGeometry x="80" y="30" width="140" height="240" as="geometry">
            <mxRectangle x="170" y="230" width="90" height="30" as="alternateBounds" />
          </mxGeometry>
        </mxCell>
        <mxCell id="R6aP7fGyWdEv9-0RN7Mx-11" value="id_produto (pk)" style="text;strokeColor=none;fillColor=none;align=left;verticalAlign=middle;spacingLeft=4;spacingRight=4;overflow=hidden;points=[[0,0.5],[1,0.5]];portConstraint=eastwest;rotatable=0;whiteSpace=wrap;html=1;" vertex="1" parent="R6aP7fGyWdEv9-0RN7Mx-10">
          <mxGeometry y="30" width="140" height="30" as="geometry" />
        </mxCell>
        <mxCell id="R6aP7fGyWdEv9-0RN7Mx-12" value="nome" style="text;strokeColor=none;fillColor=none;align=left;verticalAlign=middle;spacingLeft=4;spacingRight=4;overflow=hidden;points=[[0,0.5],[1,0.5]];portConstraint=eastwest;rotatable=0;whiteSpace=wrap;html=1;" vertex="1" parent="R6aP7fGyWdEv9-0RN7Mx-10">
          <mxGeometry y="60" width="140" height="30" as="geometry" />
        </mxCell>
        <mxCell id="R6aP7fGyWdEv9-0RN7Mx-16" value="categoria" style="text;strokeColor=none;fillColor=none;align=left;verticalAlign=middle;spacingLeft=4;spacingRight=4;overflow=hidden;points=[[0,0.5],[1,0.5]];portConstraint=eastwest;rotatable=0;whiteSpace=wrap;html=1;" vertex="1" parent="R6aP7fGyWdEv9-0RN7Mx-10">
          <mxGeometry y="90" width="140" height="30" as="geometry" />
        </mxCell>
        <mxCell id="R6aP7fGyWdEv9-0RN7Mx-17" value="preco_unitario" style="text;strokeColor=none;fillColor=none;align=left;verticalAlign=middle;spacingLeft=4;spacingRight=4;overflow=hidden;points=[[0,0.5],[1,0.5]];portConstraint=eastwest;rotatable=0;whiteSpace=wrap;html=1;" vertex="1" parent="R6aP7fGyWdEv9-0RN7Mx-10">
          <mxGeometry y="120" width="140" height="30" as="geometry" />
        </mxCell>
        <mxCell id="R6aP7fGyWdEv9-0RN7Mx-58" value="estoque" style="text;strokeColor=none;fillColor=none;align=left;verticalAlign=middle;spacingLeft=4;spacingRight=4;overflow=hidden;points=[[0,0.5],[1,0.5]];portConstraint=eastwest;rotatable=0;whiteSpace=wrap;html=1;" vertex="1" parent="R6aP7fGyWdEv9-0RN7Mx-10">
          <mxGeometry y="150" width="140" height="30" as="geometry" />
        </mxCell>
        <mxCell id="R6aP7fGyWdEv9-0RN7Mx-13" value="data_criacao" style="text;strokeColor=none;fillColor=none;align=left;verticalAlign=middle;spacingLeft=4;spacingRight=4;overflow=hidden;points=[[0,0.5],[1,0.5]];portConstraint=eastwest;rotatable=0;whiteSpace=wrap;html=1;" vertex="1" parent="R6aP7fGyWdEv9-0RN7Mx-10">
          <mxGeometry y="180" width="140" height="30" as="geometry" />
        </mxCell>
        <mxCell id="R6aP7fGyWdEv9-0RN7Mx-59" value="data_alteracao" style="text;strokeColor=none;fillColor=none;align=left;verticalAlign=middle;spacingLeft=4;spacingRight=4;overflow=hidden;points=[[0,0.5],[1,0.5]];portConstraint=eastwest;rotatable=0;whiteSpace=wrap;html=1;" vertex="1" parent="R6aP7fGyWdEv9-0RN7Mx-10">
          <mxGeometry y="210" width="140" height="30" as="geometry" />
        </mxCell>
        <mxCell id="R6aP7fGyWdEv9-0RN7Mx-18" value="fact_vendas" style="swimlane;fontStyle=0;childLayout=stackLayout;horizontal=1;startSize=30;horizontalStack=0;resizeParent=1;resizeParentMax=0;resizeLast=0;collapsible=1;marginBottom=0;whiteSpace=wrap;html=1;" vertex="1" parent="CbLyd1rWi4z5yvEcUxCL-1">
          <mxGeometry x="470" y="110" width="140" height="270" as="geometry">
            <mxRectangle x="170" y="230" width="90" height="30" as="alternateBounds" />
          </mxGeometry>
        </mxCell>
        <mxCell id="R6aP7fGyWdEv9-0RN7Mx-19" value="id_venda (pk)" style="text;strokeColor=none;fillColor=none;align=left;verticalAlign=middle;spacingLeft=4;spacingRight=4;overflow=hidden;points=[[0,0.5],[1,0.5]];portConstraint=eastwest;rotatable=0;whiteSpace=wrap;html=1;" vertex="1" parent="R6aP7fGyWdEv9-0RN7Mx-18">
          <mxGeometry y="30" width="140" height="30" as="geometry" />
        </mxCell>
        <mxCell id="R6aP7fGyWdEv9-0RN7Mx-20" value="id_produto (fk)" style="text;strokeColor=none;fillColor=none;align=left;verticalAlign=middle;spacingLeft=4;spacingRight=4;overflow=hidden;points=[[0,0.5],[1,0.5]];portConstraint=eastwest;rotatable=0;whiteSpace=wrap;html=1;" vertex="1" parent="R6aP7fGyWdEv9-0RN7Mx-18">
          <mxGeometry y="60" width="140" height="30" as="geometry" />
        </mxCell>
        <mxCell id="R6aP7fGyWdEv9-0RN7Mx-51" value="id_cliente (fk)" style="text;strokeColor=none;fillColor=none;align=left;verticalAlign=middle;spacingLeft=4;spacingRight=4;overflow=hidden;points=[[0,0.5],[1,0.5]];portConstraint=eastwest;rotatable=0;whiteSpace=wrap;html=1;" vertex="1" parent="R6aP7fGyWdEv9-0RN7Mx-18">
          <mxGeometry y="90" width="140" height="30" as="geometry" />
        </mxCell>
        <mxCell id="R6aP7fGyWdEv9-0RN7Mx-22" value="id_funcionario (fk)" style="text;strokeColor=none;fillColor=none;align=left;verticalAlign=middle;spacingLeft=4;spacingRight=4;overflow=hidden;points=[[0,0.5],[1,0.5]];portConstraint=eastwest;rotatable=0;whiteSpace=wrap;html=1;" vertex="1" parent="R6aP7fGyWdEv9-0RN7Mx-18">
          <mxGeometry y="120" width="140" height="30" as="geometry" />
        </mxCell>
        <mxCell id="R6aP7fGyWdEv9-0RN7Mx-25" value="data_id (fk)" style="text;strokeColor=none;fillColor=none;align=left;verticalAlign=middle;spacingLeft=4;spacingRight=4;overflow=hidden;points=[[0,0.5],[1,0.5]];portConstraint=eastwest;rotatable=0;whiteSpace=wrap;html=1;" vertex="1" parent="R6aP7fGyWdEv9-0RN7Mx-18">
          <mxGeometry y="150" width="140" height="30" as="geometry" />
        </mxCell>
        <mxCell id="R6aP7fGyWdEv9-0RN7Mx-24" value="id_loja (fk)" style="text;strokeColor=none;fillColor=none;align=left;verticalAlign=middle;spacingLeft=4;spacingRight=4;overflow=hidden;points=[[0,0.5],[1,0.5]];portConstraint=eastwest;rotatable=0;whiteSpace=wrap;html=1;" vertex="1" parent="R6aP7fGyWdEv9-0RN7Mx-18">
          <mxGeometry y="180" width="140" height="30" as="geometry" />
        </mxCell>
        <mxCell id="R6aP7fGyWdEv9-0RN7Mx-26" value="quantidade" style="text;strokeColor=none;fillColor=none;align=left;verticalAlign=middle;spacingLeft=4;spacingRight=4;overflow=hidden;points=[[0,0.5],[1,0.5]];portConstraint=eastwest;rotatable=0;whiteSpace=wrap;html=1;" vertex="1" parent="R6aP7fGyWdEv9-0RN7Mx-18">
          <mxGeometry y="210" width="140" height="30" as="geometry" />
        </mxCell>
        <mxCell id="R6aP7fGyWdEv9-0RN7Mx-23" value="valor_total" style="text;strokeColor=none;fillColor=none;align=left;verticalAlign=middle;spacingLeft=4;spacingRight=4;overflow=hidden;points=[[0,0.5],[1,0.5]];portConstraint=eastwest;rotatable=0;whiteSpace=wrap;html=1;" vertex="1" parent="R6aP7fGyWdEv9-0RN7Mx-18">
          <mxGeometry y="240" width="140" height="30" as="geometry" />
        </mxCell>
        <mxCell id="R6aP7fGyWdEv9-0RN7Mx-27" value="dim_clientes" style="swimlane;fontStyle=0;childLayout=stackLayout;horizontal=1;startSize=30;horizontalStack=0;resizeParent=1;resizeParentMax=0;resizeLast=0;collapsible=1;marginBottom=0;whiteSpace=wrap;html=1;" vertex="1" parent="CbLyd1rWi4z5yvEcUxCL-1">
          <mxGeometry x="90" y="320" width="140" height="210" as="geometry">
            <mxRectangle x="170" y="230" width="90" height="30" as="alternateBounds" />
          </mxGeometry>
        </mxCell>
        <mxCell id="R6aP7fGyWdEv9-0RN7Mx-28" value="id_cliente (pk)" style="text;strokeColor=none;fillColor=none;align=left;verticalAlign=middle;spacingLeft=4;spacingRight=4;overflow=hidden;points=[[0,0.5],[1,0.5]];portConstraint=eastwest;rotatable=0;whiteSpace=wrap;html=1;" vertex="1" parent="R6aP7fGyWdEv9-0RN7Mx-27">
          <mxGeometry y="30" width="140" height="30" as="geometry" />
        </mxCell>
        <mxCell id="R6aP7fGyWdEv9-0RN7Mx-29" value="nome" style="text;strokeColor=none;fillColor=none;align=left;verticalAlign=middle;spacingLeft=4;spacingRight=4;overflow=hidden;points=[[0,0.5],[1,0.5]];portConstraint=eastwest;rotatable=0;whiteSpace=wrap;html=1;" vertex="1" parent="R6aP7fGyWdEv9-0RN7Mx-27">
          <mxGeometry y="60" width="140" height="30" as="geometry" />
        </mxCell>
        <mxCell id="R6aP7fGyWdEv9-0RN7Mx-30" value="email" style="text;strokeColor=none;fillColor=none;align=left;verticalAlign=middle;spacingLeft=4;spacingRight=4;overflow=hidden;points=[[0,0.5],[1,0.5]];portConstraint=eastwest;rotatable=0;whiteSpace=wrap;html=1;" vertex="1" parent="R6aP7fGyWdEv9-0RN7Mx-27">
          <mxGeometry y="90" width="140" height="30" as="geometry" />
        </mxCell>
        <mxCell id="R6aP7fGyWdEv9-0RN7Mx-31" value="telefone" style="text;strokeColor=none;fillColor=none;align=left;verticalAlign=middle;spacingLeft=4;spacingRight=4;overflow=hidden;points=[[0,0.5],[1,0.5]];portConstraint=eastwest;rotatable=0;whiteSpace=wrap;html=1;" vertex="1" parent="R6aP7fGyWdEv9-0RN7Mx-27">
          <mxGeometry y="120" width="140" height="30" as="geometry" />
        </mxCell>
        <mxCell id="R6aP7fGyWdEv9-0RN7Mx-60" value="data_criacao" style="text;strokeColor=none;fillColor=none;align=left;verticalAlign=middle;spacingLeft=4;spacingRight=4;overflow=hidden;points=[[0,0.5],[1,0.5]];portConstraint=eastwest;rotatable=0;whiteSpace=wrap;html=1;" vertex="1" parent="R6aP7fGyWdEv9-0RN7Mx-27">
          <mxGeometry y="150" width="140" height="30" as="geometry" />
        </mxCell>
        <mxCell id="R6aP7fGyWdEv9-0RN7Mx-61" value="data_alteracao" style="text;strokeColor=none;fillColor=none;align=left;verticalAlign=middle;spacingLeft=4;spacingRight=4;overflow=hidden;points=[[0,0.5],[1,0.5]];portConstraint=eastwest;rotatable=0;whiteSpace=wrap;html=1;" vertex="1" parent="R6aP7fGyWdEv9-0RN7Mx-27">
          <mxGeometry y="180" width="140" height="30" as="geometry" />
        </mxCell>
        <mxCell id="R6aP7fGyWdEv9-0RN7Mx-36" value="dim_funcionarios" style="swimlane;fontStyle=0;childLayout=stackLayout;horizontal=1;startSize=30;horizontalStack=0;resizeParent=1;resizeParentMax=0;resizeLast=0;collapsible=1;marginBottom=0;whiteSpace=wrap;html=1;" vertex="1" parent="CbLyd1rWi4z5yvEcUxCL-1">
          <mxGeometry x="920" y="120" width="140" height="210" as="geometry">
            <mxRectangle x="170" y="230" width="90" height="30" as="alternateBounds" />
          </mxGeometry>
        </mxCell>
        <mxCell id="R6aP7fGyWdEv9-0RN7Mx-37" value="id_funcionario (pk)" style="text;strokeColor=none;fillColor=none;align=left;verticalAlign=middle;spacingLeft=4;spacingRight=4;overflow=hidden;points=[[0,0.5],[1,0.5]];portConstraint=eastwest;rotatable=0;whiteSpace=wrap;html=1;" vertex="1" parent="R6aP7fGyWdEv9-0RN7Mx-36">
          <mxGeometry y="30" width="140" height="30" as="geometry" />
        </mxCell>
        <mxCell id="R6aP7fGyWdEv9-0RN7Mx-38" value="nome" style="text;strokeColor=none;fillColor=none;align=left;verticalAlign=middle;spacingLeft=4;spacingRight=4;overflow=hidden;points=[[0,0.5],[1,0.5]];portConstraint=eastwest;rotatable=0;whiteSpace=wrap;html=1;" vertex="1" parent="R6aP7fGyWdEv9-0RN7Mx-36">
          <mxGeometry y="60" width="140" height="30" as="geometry" />
        </mxCell>
        <mxCell id="R6aP7fGyWdEv9-0RN7Mx-39" value="cargo" style="text;strokeColor=none;fillColor=none;align=left;verticalAlign=middle;spacingLeft=4;spacingRight=4;overflow=hidden;points=[[0,0.5],[1,0.5]];portConstraint=eastwest;rotatable=0;whiteSpace=wrap;html=1;" vertex="1" parent="R6aP7fGyWdEv9-0RN7Mx-36">
          <mxGeometry y="90" width="140" height="30" as="geometry" />
        </mxCell>
        <mxCell id="R6aP7fGyWdEv9-0RN7Mx-40" value="id_loja (fk)" style="text;strokeColor=none;fillColor=none;align=left;verticalAlign=middle;spacingLeft=4;spacingRight=4;overflow=hidden;points=[[0,0.5],[1,0.5]];portConstraint=eastwest;rotatable=0;whiteSpace=wrap;html=1;" vertex="1" parent="R6aP7fGyWdEv9-0RN7Mx-36">
          <mxGeometry y="120" width="140" height="30" as="geometry" />
        </mxCell>
        <mxCell id="R6aP7fGyWdEv9-0RN7Mx-62" value="data_criacao" style="text;strokeColor=none;fillColor=none;align=left;verticalAlign=middle;spacingLeft=4;spacingRight=4;overflow=hidden;points=[[0,0.5],[1,0.5]];portConstraint=eastwest;rotatable=0;whiteSpace=wrap;html=1;" vertex="1" parent="R6aP7fGyWdEv9-0RN7Mx-36">
          <mxGeometry y="150" width="140" height="30" as="geometry" />
        </mxCell>
        <mxCell id="R6aP7fGyWdEv9-0RN7Mx-63" value="data_alteracao" style="text;strokeColor=none;fillColor=none;align=left;verticalAlign=middle;spacingLeft=4;spacingRight=4;overflow=hidden;points=[[0,0.5],[1,0.5]];portConstraint=eastwest;rotatable=0;whiteSpace=wrap;html=1;" vertex="1" parent="R6aP7fGyWdEv9-0RN7Mx-36">
          <mxGeometry y="180" width="140" height="30" as="geometry" />
        </mxCell>
        <mxCell id="R6aP7fGyWdEv9-0RN7Mx-45" value="dim_lojas" style="swimlane;fontStyle=0;childLayout=stackLayout;horizontal=1;startSize=30;horizontalStack=0;resizeParent=1;resizeParentMax=0;resizeLast=0;collapsible=1;marginBottom=0;whiteSpace=wrap;html=1;" vertex="1" parent="CbLyd1rWi4z5yvEcUxCL-1">
          <mxGeometry x="620" y="580" width="140" height="210" as="geometry">
            <mxRectangle x="170" y="230" width="90" height="30" as="alternateBounds" />
          </mxGeometry>
        </mxCell>
        <mxCell id="R6aP7fGyWdEv9-0RN7Mx-46" value="id_loja (pk)" style="text;strokeColor=none;fillColor=none;align=left;verticalAlign=middle;spacingLeft=4;spacingRight=4;overflow=hidden;points=[[0,0.5],[1,0.5]];portConstraint=eastwest;rotatable=0;whiteSpace=wrap;html=1;" vertex="1" parent="R6aP7fGyWdEv9-0RN7Mx-45">
          <mxGeometry y="30" width="140" height="30" as="geometry" />
        </mxCell>
        <mxCell id="R6aP7fGyWdEv9-0RN7Mx-47" value="nome" style="text;strokeColor=none;fillColor=none;align=left;verticalAlign=middle;spacingLeft=4;spacingRight=4;overflow=hidden;points=[[0,0.5],[1,0.5]];portConstraint=eastwest;rotatable=0;whiteSpace=wrap;html=1;" vertex="1" parent="R6aP7fGyWdEv9-0RN7Mx-45">
          <mxGeometry y="60" width="140" height="30" as="geometry" />
        </mxCell>
        <mxCell id="R6aP7fGyWdEv9-0RN7Mx-48" value="localizacao" style="text;strokeColor=none;fillColor=none;align=left;verticalAlign=middle;spacingLeft=4;spacingRight=4;overflow=hidden;points=[[0,0.5],[1,0.5]];portConstraint=eastwest;rotatable=0;whiteSpace=wrap;html=1;" vertex="1" parent="R6aP7fGyWdEv9-0RN7Mx-45">
          <mxGeometry y="90" width="140" height="30" as="geometry" />
        </mxCell>
        <mxCell id="R6aP7fGyWdEv9-0RN7Mx-49" value="gerente" style="text;strokeColor=none;fillColor=none;align=left;verticalAlign=middle;spacingLeft=4;spacingRight=4;overflow=hidden;points=[[0,0.5],[1,0.5]];portConstraint=eastwest;rotatable=0;whiteSpace=wrap;html=1;" vertex="1" parent="R6aP7fGyWdEv9-0RN7Mx-45">
          <mxGeometry y="120" width="140" height="30" as="geometry" />
        </mxCell>
        <mxCell id="R6aP7fGyWdEv9-0RN7Mx-64" value="data_criacao" style="text;strokeColor=none;fillColor=none;align=left;verticalAlign=middle;spacingLeft=4;spacingRight=4;overflow=hidden;points=[[0,0.5],[1,0.5]];portConstraint=eastwest;rotatable=0;whiteSpace=wrap;html=1;" vertex="1" parent="R6aP7fGyWdEv9-0RN7Mx-45">
          <mxGeometry y="150" width="140" height="30" as="geometry" />
        </mxCell>
        <mxCell id="R6aP7fGyWdEv9-0RN7Mx-65" value="data_alteracao" style="text;strokeColor=none;fillColor=none;align=left;verticalAlign=middle;spacingLeft=4;spacingRight=4;overflow=hidden;points=[[0,0.5],[1,0.5]];portConstraint=eastwest;rotatable=0;whiteSpace=wrap;html=1;" vertex="1" parent="R6aP7fGyWdEv9-0RN7Mx-45">
          <mxGeometry y="180" width="140" height="30" as="geometry" />
        </mxCell>
        <mxCell id="R6aP7fGyWdEv9-0RN7Mx-53" style="edgeStyle=orthogonalEdgeStyle;rounded=0;orthogonalLoop=1;jettySize=auto;html=1;entryX=0;entryY=0.5;entryDx=0;entryDy=0;" edge="1" parent="CbLyd1rWi4z5yvEcUxCL-1" source="R6aP7fGyWdEv9-0RN7Mx-22" target="R6aP7fGyWdEv9-0RN7Mx-37">
          <mxGeometry relative="1" as="geometry" />
        </mxCell>
        <mxCell id="R6aP7fGyWdEv9-0RN7Mx-55" style="edgeStyle=orthogonalEdgeStyle;rounded=0;orthogonalLoop=1;jettySize=auto;html=1;entryX=1;entryY=0.5;entryDx=0;entryDy=0;" edge="1" parent="CbLyd1rWi4z5yvEcUxCL-1" source="R6aP7fGyWdEv9-0RN7Mx-24" target="R6aP7fGyWdEv9-0RN7Mx-46">
          <mxGeometry relative="1" as="geometry" />
        </mxCell>
        <mxCell id="R6aP7fGyWdEv9-0RN7Mx-57" style="edgeStyle=orthogonalEdgeStyle;rounded=0;orthogonalLoop=1;jettySize=auto;html=1;entryX=0;entryY=0.5;entryDx=0;entryDy=0;" edge="1" parent="CbLyd1rWi4z5yvEcUxCL-1" source="R6aP7fGyWdEv9-0RN7Mx-46" target="R6aP7fGyWdEv9-0RN7Mx-40">
          <mxGeometry relative="1" as="geometry" />
        </mxCell>
        <mxCell id="R6aP7fGyWdEv9-0RN7Mx-74" style="edgeStyle=orthogonalEdgeStyle;rounded=0;orthogonalLoop=1;jettySize=auto;html=1;exitX=1;exitY=0.5;exitDx=0;exitDy=0;" edge="1" parent="CbLyd1rWi4z5yvEcUxCL-1" source="R6aP7fGyWdEv9-0RN7Mx-67" target="R6aP7fGyWdEv9-0RN7Mx-25">
          <mxGeometry relative="1" as="geometry" />
        </mxCell>
        <mxCell id="R6aP7fGyWdEv9-0RN7Mx-66" value="dim_data" style="swimlane;fontStyle=0;childLayout=stackLayout;horizontal=1;startSize=30;horizontalStack=0;resizeParent=1;resizeParentMax=0;resizeLast=0;collapsible=1;marginBottom=0;whiteSpace=wrap;html=1;" vertex="1" parent="CbLyd1rWi4z5yvEcUxCL-1">
          <mxGeometry x="250" y="530" width="140" height="270" as="geometry">
            <mxRectangle x="170" y="230" width="90" height="30" as="alternateBounds" />
          </mxGeometry>
        </mxCell>
        <mxCell id="R6aP7fGyWdEv9-0RN7Mx-67" value="id_data (pk)" style="text;strokeColor=none;fillColor=none;align=left;verticalAlign=middle;spacingLeft=4;spacingRight=4;overflow=hidden;points=[[0,0.5],[1,0.5]];portConstraint=eastwest;rotatable=0;whiteSpace=wrap;html=1;" vertex="1" parent="R6aP7fGyWdEv9-0RN7Mx-66">
          <mxGeometry y="30" width="140" height="30" as="geometry" />
        </mxCell>
        <mxCell id="R6aP7fGyWdEv9-0RN7Mx-68" value="data_completa" style="text;strokeColor=none;fillColor=none;align=left;verticalAlign=middle;spacingLeft=4;spacingRight=4;overflow=hidden;points=[[0,0.5],[1,0.5]];portConstraint=eastwest;rotatable=0;whiteSpace=wrap;html=1;" vertex="1" parent="R6aP7fGyWdEv9-0RN7Mx-66">
          <mxGeometry y="60" width="140" height="30" as="geometry" />
        </mxCell>
        <mxCell id="R6aP7fGyWdEv9-0RN7Mx-69" value="ano (int)" style="text;strokeColor=none;fillColor=none;align=left;verticalAlign=middle;spacingLeft=4;spacingRight=4;overflow=hidden;points=[[0,0.5],[1,0.5]];portConstraint=eastwest;rotatable=0;whiteSpace=wrap;html=1;" vertex="1" parent="R6aP7fGyWdEv9-0RN7Mx-66">
          <mxGeometry y="90" width="140" height="30" as="geometry" />
        </mxCell>
        <mxCell id="R6aP7fGyWdEv9-0RN7Mx-71" value="mes" style="text;strokeColor=none;fillColor=none;align=left;verticalAlign=middle;spacingLeft=4;spacingRight=4;overflow=hidden;points=[[0,0.5],[1,0.5]];portConstraint=eastwest;rotatable=0;whiteSpace=wrap;html=1;" vertex="1" parent="R6aP7fGyWdEv9-0RN7Mx-66">
          <mxGeometry y="120" width="140" height="30" as="geometry" />
        </mxCell>
        <mxCell id="R6aP7fGyWdEv9-0RN7Mx-75" value="dia" style="text;strokeColor=none;fillColor=none;align=left;verticalAlign=middle;spacingLeft=4;spacingRight=4;overflow=hidden;points=[[0,0.5],[1,0.5]];portConstraint=eastwest;rotatable=0;whiteSpace=wrap;html=1;" vertex="1" parent="R6aP7fGyWdEv9-0RN7Mx-66">
          <mxGeometry y="150" width="140" height="30" as="geometry" />
        </mxCell>
        <mxCell id="R6aP7fGyWdEv9-0RN7Mx-72" value="hora" style="text;strokeColor=none;fillColor=none;align=left;verticalAlign=middle;spacingLeft=4;spacingRight=4;overflow=hidden;points=[[0,0.5],[1,0.5]];portConstraint=eastwest;rotatable=0;whiteSpace=wrap;html=1;" vertex="1" parent="R6aP7fGyWdEv9-0RN7Mx-66">
          <mxGeometry y="180" width="140" height="30" as="geometry" />
        </mxCell>
        <mxCell id="R6aP7fGyWdEv9-0RN7Mx-80" value="feriado (bool)" style="text;strokeColor=none;fillColor=none;align=left;verticalAlign=middle;spacingLeft=4;spacingRight=4;overflow=hidden;points=[[0,0.5],[1,0.5]];portConstraint=eastwest;rotatable=0;whiteSpace=wrap;html=1;" vertex="1" parent="R6aP7fGyWdEv9-0RN7Mx-66">
          <mxGeometry y="210" width="140" height="30" as="geometry" />
        </mxCell>
        <mxCell id="R6aP7fGyWdEv9-0RN7Mx-81" value="dia_pagamento (bool)" style="text;strokeColor=none;fillColor=none;align=left;verticalAlign=middle;spacingLeft=4;spacingRight=4;overflow=hidden;points=[[0,0.5],[1,0.5]];portConstraint=eastwest;rotatable=0;whiteSpace=wrap;html=1;" vertex="1" parent="R6aP7fGyWdEv9-0RN7Mx-66">
          <mxGeometry y="240" width="140" height="30" as="geometry" />
        </mxCell>
        <mxCell id="R6aP7fGyWdEv9-0RN7Mx-76" style="edgeStyle=orthogonalEdgeStyle;rounded=0;orthogonalLoop=1;jettySize=auto;html=1;entryX=1;entryY=0.5;entryDx=0;entryDy=0;exitX=0;exitY=0.5;exitDx=0;exitDy=0;" edge="1" parent="CbLyd1rWi4z5yvEcUxCL-1" source="R6aP7fGyWdEv9-0RN7Mx-20" target="R6aP7fGyWdEv9-0RN7Mx-11">
          <mxGeometry relative="1" as="geometry" />
        </mxCell>
        <mxCell id="R6aP7fGyWdEv9-0RN7Mx-77" style="edgeStyle=orthogonalEdgeStyle;rounded=0;orthogonalLoop=1;jettySize=auto;html=1;entryX=1;entryY=0.5;entryDx=0;entryDy=0;" edge="1" parent="CbLyd1rWi4z5yvEcUxCL-1" source="R6aP7fGyWdEv9-0RN7Mx-51" target="R6aP7fGyWdEv9-0RN7Mx-28">
          <mxGeometry relative="1" as="geometry" />
        </mxCell>
      </root>
    </mxGraphModel>
  </diagram>
  <diagram name="Cenario 4" id="lQiTKxL31qg5ZR0Ul3zu">
    <mxGraphModel dx="1426" dy="777" grid="1" gridSize="10" guides="1" tooltips="1" connect="1" arrows="1" fold="1" page="1" pageScale="1" pageWidth="1169" pageHeight="827" math="0" shadow="0">
      <root>
        <mxCell id="0" />
        <mxCell id="1" parent="0" />
        <mxCell id="y7XQ8cCP44gINYRC2CR5-4" style="edgeStyle=orthogonalEdgeStyle;rounded=0;orthogonalLoop=1;jettySize=auto;html=1;" edge="1" parent="1" target="y7XQ8cCP44gINYRC2CR5-3">
          <mxGeometry relative="1" as="geometry">
            <mxPoint x="284.99336087341385" y="339" as="sourcePoint" />
          </mxGeometry>
        </mxCell>
        <mxCell id="y7XQ8cCP44gINYRC2CR5-6" style="edgeStyle=orthogonalEdgeStyle;rounded=0;orthogonalLoop=1;jettySize=auto;html=1;" edge="1" parent="1" source="y7XQ8cCP44gINYRC2CR5-3">
          <mxGeometry relative="1" as="geometry">
            <mxPoint x="630.0066391265859" y="339" as="targetPoint" />
          </mxGeometry>
        </mxCell>
        <mxCell id="y7XQ8cCP44gINYRC2CR5-3" value="ApacheSpark" style="rounded=0;whiteSpace=wrap;html=1;" vertex="1" parent="1">
          <mxGeometry x="390" y="309" width="120" height="60" as="geometry" />
        </mxCell>
        <mxCell id="y7XQ8cCP44gINYRC2CR5-8" style="edgeStyle=orthogonalEdgeStyle;rounded=0;orthogonalLoop=1;jettySize=auto;html=1;" edge="1" parent="1" source="y7XQ8cCP44gINYRC2CR5-7" target="y7XQ8cCP44gINYRC2CR5-3">
          <mxGeometry relative="1" as="geometry" />
        </mxCell>
        <mxCell id="y7XQ8cCP44gINYRC2CR5-7" value="Orquestrador" style="rounded=1;whiteSpace=wrap;html=1;" vertex="1" parent="1">
          <mxGeometry x="390" y="150" width="120" height="60" as="geometry" />
        </mxCell>
        <mxCell id="y7XQ8cCP44gINYRC2CR5-9" value="" style="outlineConnect=0;dashed=0;verticalLabelPosition=bottom;verticalAlign=top;align=center;html=1;shape=mxgraph.aws3.redshift;fillColor=#2E73B8;gradientColor=none;" vertex="1" parent="1">
          <mxGeometry x="760" y="299" width="67.5" height="75" as="geometry" />
        </mxCell>
        <mxCell id="y7XQ8cCP44gINYRC2CR5-10" value="" style="outlineConnect=0;dashed=0;verticalLabelPosition=bottom;verticalAlign=top;align=center;html=1;shape=mxgraph.aws3.s3;fillColor=#E05243;gradientColor=none;" vertex="1" parent="1">
          <mxGeometry x="200" y="292.5" width="76.5" height="93" as="geometry" />
        </mxCell>
        <mxCell id="y7XQ8cCP44gINYRC2CR5-13" style="edgeStyle=orthogonalEdgeStyle;rounded=0;orthogonalLoop=1;jettySize=auto;html=1;" edge="1" parent="1" source="y7XQ8cCP44gINYRC2CR5-11" target="y7XQ8cCP44gINYRC2CR5-9">
          <mxGeometry relative="1" as="geometry" />
        </mxCell>
        <mxCell id="y7XQ8cCP44gINYRC2CR5-15" style="edgeStyle=orthogonalEdgeStyle;rounded=0;orthogonalLoop=1;jettySize=auto;html=1;exitX=0.5;exitY=1;exitDx=0;exitDy=0;exitPerimeter=0;entryX=0;entryY=0.5;entryDx=0;entryDy=0;entryPerimeter=0;" edge="1" parent="1" source="y7XQ8cCP44gINYRC2CR5-11" target="y7XQ8cCP44gINYRC2CR5-14">
          <mxGeometry relative="1" as="geometry">
            <mxPoint x="620" y="440" as="sourcePoint" />
            <mxPoint x="703.8000000000002" y="543.5" as="targetPoint" />
          </mxGeometry>
        </mxCell>
        <mxCell id="y7XQ8cCP44gINYRC2CR5-11" value="" style="outlineConnect=0;dashed=0;verticalLabelPosition=bottom;verticalAlign=top;align=center;html=1;shape=mxgraph.aws3.s3;fillColor=#E05243;gradientColor=none;" vertex="1" parent="1">
          <mxGeometry x="630" y="290" width="76.5" height="93" as="geometry" />
        </mxCell>
        <UserObject label="https://aws.amazon.com/pt/blogs/big-data/using-amazon-s3-tables-with-amazon-redshift-to-query-apache-iceberg-tables/" link="https://aws.amazon.com/pt/blogs/big-data/using-amazon-s3-tables-with-amazon-redshift-to-query-apache-iceberg-tables/" id="y7XQ8cCP44gINYRC2CR5-12">
          <mxCell style="text;whiteSpace=wrap;" vertex="1" parent="1">
            <mxGeometry x="550" y="550" width="560" height="50" as="geometry" />
          </mxCell>
        </UserObject>
        <mxCell id="y7XQ8cCP44gINYRC2CR5-14" value="" style="outlineConnect=0;dashed=0;verticalLabelPosition=bottom;verticalAlign=top;align=center;html=1;shape=mxgraph.aws3.athena;fillColor=#F58534;gradientColor=none;" vertex="1" parent="1">
          <mxGeometry x="752" y="440" width="76.5" height="76.5" as="geometry" />
        </mxCell>
      </root>
    </mxGraphModel>
  </diagram>
</mxfile>
